<svg width="27" height="32" viewBox="0 0 27 32" fill="none" xmlns="http://www.w3.org/2000/svg">
<path d="M26.4468 2.22535C26.4468 2.21075 26.4457 2.19615 26.4435 2.18211C26.277 0.937758 25.2205 0 23.9859 0C23.0866 0 22.2812 0.498079 21.8464 1.25109C21.4128 0.498079 20.608 0 19.7081 0C18.8081 0 18.0017 0.497517 17.5669 1.24885C17.1338 0.497517 16.329 0 15.4269 0C14.5264 0 13.7216 0.497517 13.2857 1.24828C12.8537 0.496955 12.049 0 11.1468 0C10.2463 0 9.44097 0.497517 9.00566 1.24885C8.57201 0.497517 7.76777 0 6.86673 0C5.92586 0 5.10281 0.537947 4.68299 1.32521C4.26317 0.537386 3.44012 0 2.49981 0C1.14465 0 0.0339773 1.1152 0.0207023 2.48815C0.0201492 2.49769 0.019043 2.5078 0.019043 2.51847L0.0207023 29.7747C0.0207023 29.7893 0.0212555 29.8039 0.0240211 29.8179C0.189405 31.0622 1.24587 32 2.47989 32C3.37928 32 4.18518 31.5014 4.61993 30.7489C5.05358 31.5014 5.85838 32 6.75831 32C7.6588 32 8.46415 31.5025 8.89946 30.7512C9.33311 31.5025 10.1374 32 11.0389 32C11.9394 32 12.7448 31.5025 13.1801 30.7512C13.6132 31.5025 14.4169 32 15.319 32C16.2206 32 17.0254 31.5025 17.4607 30.7512C17.8944 31.5025 18.6992 32 19.6008 32C20.5416 32 21.3647 31.4621 21.7839 30.6748C22.2038 31.4632 23.0263 32 23.9666 32C25.3217 32 26.4324 30.8842 26.4457 29.5113C26.4462 29.5017 26.4468 29.4911 26.4468 29.4815L26.4462 2.22535H26.4468ZM25.8074 29.4989C25.8002 30.5209 24.9755 31.3509 23.9671 31.3509C22.9599 31.3509 22.1341 30.5198 22.1274 29.4989C22.1263 29.3209 21.9836 29.1766 21.8072 29.1766H21.7602C21.5843 29.1766 21.441 29.3209 21.4399 29.4989C21.4333 30.5209 20.608 31.3509 19.6002 31.3509C18.6815 31.3509 17.8988 30.6546 17.7782 29.7314C17.7578 29.5697 17.6222 29.4495 17.4618 29.449C17.3014 29.449 17.1659 29.5691 17.1443 29.7303C17.0221 30.654 16.2372 31.3509 15.3196 31.3509C14.4003 31.3509 13.6182 30.6546 13.4998 29.732C13.4788 29.5703 13.3438 29.4501 13.184 29.4495H13.1829C13.023 29.4495 12.8875 29.5697 12.8665 29.7297C12.7431 30.654 11.9577 31.3509 11.0395 31.3509C10.1213 31.3509 9.33809 30.6546 9.21861 29.7314C9.19759 29.5697 9.06263 29.4495 8.90167 29.449C8.74182 29.449 8.6063 29.5691 8.58473 29.7303C8.46138 30.654 7.6765 31.3509 6.75887 31.3509C5.84289 31.3509 5.06022 30.6546 4.93853 29.7309C4.91752 29.5697 4.78255 29.4495 4.62215 29.4495C4.46229 29.4495 4.32733 29.5691 4.30576 29.7297C4.18131 30.654 3.39698 31.3509 2.48155 31.3509C1.57277 31.3509 0.793417 30.6647 0.661221 29.7511L0.659561 2.52689C0.660114 2.51791 0.660668 2.50948 0.660668 2.49994C0.667858 1.47907 1.49257 0.648007 2.50036 0.648007C3.50815 0.648007 4.33342 1.47851 4.34005 2.49994C4.34171 2.67851 4.48387 2.82226 4.65976 2.82226H4.70733C4.88267 2.82226 5.02593 2.67794 5.02703 2.49994C5.03422 1.47907 5.85949 0.648007 6.86728 0.648007C7.78602 0.648007 8.56869 1.34375 8.68927 2.2669C8.71029 2.42862 8.84525 2.54935 9.00566 2.54935C9.16607 2.54935 9.30103 2.42919 9.3226 2.26803C9.44484 1.34431 10.2297 0.647446 11.1474 0.647446C12.0661 0.647446 12.8493 1.34375 12.9677 2.26634C12.9887 2.42806 13.1237 2.54879 13.2841 2.54935H13.2846C13.4445 2.54935 13.58 2.42919 13.601 2.26803C13.7244 1.34375 14.5098 0.647446 15.4274 0.647446C16.3462 0.647446 17.1283 1.34375 17.2483 2.2669C17.2693 2.42862 17.4049 2.54935 17.5647 2.54935C17.7246 2.54935 17.8601 2.42919 17.8822 2.26803C18.0061 1.34375 18.791 0.647446 19.7081 0.647446C20.624 0.647446 21.4067 1.34375 21.5284 2.26803C21.5494 2.42862 21.6849 2.54935 21.8448 2.54935H21.8453C22.0052 2.54935 22.1407 2.42919 22.1617 2.26803C22.2862 1.34375 23.0705 0.647446 23.9859 0.647446C24.8953 0.647446 25.6741 1.33364 25.8068 2.24725L25.8085 29.4714C25.809 29.4798 25.809 29.4894 25.809 29.4978L25.8074 29.4989ZM18.0249 16.974C18.0249 17.1531 17.8817 17.2985 17.7052 17.2985H3.17296C2.99596 17.2985 2.85325 17.1531 2.85325 16.974C2.85325 16.7943 2.99596 16.6494 3.17296 16.6494H17.7052C17.8817 16.6494 18.0249 16.7943 18.0249 16.974ZM18.0249 20.8693C18.0249 21.0485 17.8817 21.1939 17.7052 21.1939H3.17296C2.99596 21.1939 2.85325 21.0484 2.85325 20.8688C2.85325 20.6896 2.99596 20.5442 3.17296 20.5442H17.7052C17.8817 20.5442 18.0249 20.6896 18.0249 20.8688V20.8693ZM18.0249 24.7652C18.0249 24.9449 17.8817 25.0904 17.7052 25.0904L3.17296 25.0898C2.99596 25.0898 2.85325 24.9444 2.85325 24.7652C2.85325 24.5861 2.99596 24.4407 3.17296 24.4407H17.7052C17.8817 24.4407 18.0249 24.5861 18.0249 24.7652Z" fill="#202235"/>
<mask id="path-2-inside-1_222_1220" fill="white">
<path d="M20.667 18.6597L23.2612 15.8829C23.3259 15.8234 23.3635 15.7386 23.364 15.6493C23.3646 15.5606 23.3292 15.4753 23.2656 15.4135C23.202 15.3523 23.1162 15.3203 23.0288 15.3259C22.9415 15.3315 22.8601 15.3736 22.8043 15.4427L20.6775 17.7175L19.8589 16.7971C19.8047 16.7286 19.725 16.6854 19.6387 16.6781C19.5525 16.6708 19.4667 16.7 19.402 16.7589C19.3378 16.8179 19.2997 16.901 19.2975 16.9891C19.2953 17.0767 19.3284 17.1621 19.3898 17.2244L20.667 18.6597Z"/>
</mask>
<path d="M20.667 18.6597L23.2612 15.8829C23.3259 15.8234 23.3635 15.7386 23.364 15.6493C23.3646 15.5606 23.3292 15.4753 23.2656 15.4135C23.202 15.3523 23.1162 15.3203 23.0288 15.3259C22.9415 15.3315 22.8601 15.3736 22.8043 15.4427L20.6775 17.7175L19.8589 16.7971C19.8047 16.7286 19.725 16.6854 19.6387 16.6781C19.5525 16.6708 19.4667 16.7 19.402 16.7589C19.3378 16.8179 19.2997 16.901 19.2975 16.9891C19.2953 17.0767 19.3284 17.1621 19.3898 17.2244L20.667 18.6597Z" fill="#202235"/>
<path d="M23.2612 15.8829L23.2378 15.8575L23.236 15.8594L23.2612 15.8829ZM23.364 15.6493L23.3296 15.6491V15.6491L23.364 15.6493ZM23.2656 15.4135L23.2896 15.3888L23.2895 15.3887L23.2656 15.4135ZM22.8043 15.4427L22.8295 15.4663L22.8311 15.4644L22.8043 15.4427ZM20.6775 17.7175L20.6518 17.7404L20.6769 17.7686L20.7027 17.741L20.6775 17.7175ZM19.8589 16.7971L19.8318 16.8185L19.8331 16.82L19.8589 16.7971ZM19.402 16.7589L19.3788 16.7334L19.3787 16.7335L19.402 16.7589ZM19.2975 16.9891L19.3319 16.99L19.3319 16.99L19.2975 16.9891ZM19.3898 17.2244L19.4156 17.2015L19.4144 17.2002L19.3898 17.2244ZM20.6922 18.6832L23.2863 15.9065L23.236 15.8594L20.6418 18.6362L20.6922 18.6832ZM23.2845 15.9083C23.3563 15.8423 23.3979 15.7483 23.3985 15.6495L23.3296 15.6491C23.3291 15.7289 23.2955 15.8046 23.2378 15.8576L23.2845 15.9083ZM23.3985 15.6495C23.3991 15.5515 23.36 15.4571 23.2896 15.3888L23.2416 15.4382C23.2984 15.4934 23.3301 15.5697 23.3296 15.6491L23.3985 15.6495ZM23.2895 15.3887C23.219 15.3209 23.1239 15.2852 23.0266 15.2915L23.0311 15.3603C23.1086 15.3553 23.1849 15.3837 23.2417 15.4383L23.2895 15.3887ZM23.0266 15.2915C22.9295 15.2977 22.8394 15.3445 22.7775 15.421L22.8311 15.4644C22.8809 15.4027 22.9534 15.3653 23.0311 15.3603L23.0266 15.2915ZM22.7791 15.4191L20.6523 17.6939L20.7027 17.741L22.8295 15.4662L22.7791 15.4191ZM20.7033 17.6945L19.8846 16.7742L19.8331 16.82L20.6518 17.7404L20.7033 17.6945ZM19.8859 16.7757C19.8259 16.6999 19.7376 16.6518 19.6416 16.6437L19.6358 16.7124C19.7125 16.7189 19.7835 16.7573 19.8319 16.8185L19.8859 16.7757ZM19.6416 16.6437C19.5457 16.6356 19.4505 16.6681 19.3788 16.7334L19.4252 16.7844C19.4829 16.7318 19.5592 16.7059 19.6358 16.7124L19.6416 16.6437ZM19.3787 16.7335C19.3077 16.7988 19.2655 16.8907 19.263 16.9883L19.3319 16.99C19.3339 16.9112 19.368 16.837 19.4253 16.7843L19.3787 16.7335ZM19.263 16.9883C19.2606 17.0851 19.2972 17.1795 19.3653 17.2486L19.4144 17.2002C19.3597 17.1447 19.3299 17.0684 19.3319 16.99L19.263 16.9883ZM19.3641 17.2473L20.6413 18.6826L20.6927 18.6368L19.4156 17.2015L19.3641 17.2473Z" fill="#03010C" mask="url(#path-2-inside-1_222_1220)"/>
<path d="M20.667 25.5261L23.2612 22.7493C23.3259 22.6893 23.3635 22.605 23.364 22.5157C23.3646 22.427 23.3292 22.3417 23.2656 22.2799C23.202 22.2187 23.1162 22.1872 23.0288 22.1923C22.9415 22.1979 22.8601 22.24 22.8043 22.3091L20.6775 24.5839L19.8589 23.663C19.8047 23.5944 19.725 23.5512 19.6387 23.5439C19.5525 23.5366 19.4667 23.5658 19.402 23.6248C19.3378 23.6837 19.2997 23.7668 19.2975 23.855C19.2953 23.9432 19.3284 24.0279 19.3898 24.0903L20.667 25.5256V25.5261Z" fill="#202235"/>
<path d="M13.8773 5.76806C16.6633 6.08588 18.8189 8.4314 18.9339 11.2834H19.6132C19.7094 11.2834 19.7957 11.3418 19.8327 11.4322C19.8693 11.5215 19.8499 11.6254 19.7824 11.6956L19.3261 12.1583C19.2813 12.2038 19.221 12.2296 19.1574 12.2296H7.30834C7.24529 12.2296 7.18444 12.2038 7.13964 12.1583L6.68387 11.6956C6.6186 11.6293 6.59703 11.5305 6.62855 11.4423C6.66008 11.3547 6.73807 11.293 6.83598 11.284C6.84317 11.2834 6.8487 11.2834 6.85312 11.284H7.53181C7.64686 8.43196 9.80349 6.08644 12.5896 5.76862C12.5569 5.6872 12.5398 5.5996 12.5398 5.50975C12.5398 5.12229 12.8512 4.80615 13.2329 4.80615C13.6145 4.80615 13.927 5.12173 13.927 5.50975C13.927 5.5996 13.9099 5.68663 13.8773 5.76806ZM13.2334 5.28907C13.1117 5.28907 13.016 5.38621 13.016 5.50919C13.016 5.63273 13.1123 5.72987 13.2334 5.72987C13.3546 5.72987 13.4525 5.63273 13.4525 5.50919C13.4525 5.38565 13.3551 5.28907 13.2334 5.28907ZM8.03073 11.2834H18.4372C18.3105 8.4606 16.0383 6.21447 13.2334 6.21447C10.428 6.21447 8.15739 8.46116 8.03073 11.2834Z" fill="#202235"/>
</svg>
