<svg width="21" height="20" viewBox="0 0 21 20" fill="none" xmlns="http://www.w3.org/2000/svg">
<path d="M10.25 11.875C11.2855 11.875 12.125 11.0355 12.125 10C12.125 8.96447 11.2855 8.125 10.25 8.125C9.21447 8.125 8.375 8.96447 8.375 10C8.375 11.0355 9.21447 11.875 10.25 11.875Z" fill="#FDFDFD"/>
<path d="M10.25 5.625C11.2855 5.625 12.125 4.78553 12.125 3.75C12.125 2.71447 11.2855 1.875 10.25 1.875C9.21447 1.875 8.375 2.71447 8.375 3.75C8.375 4.78553 9.21447 5.625 10.25 5.625Z" fill="#FDFDFD"/>
<path d="M10.25 18.125C11.2855 18.125 12.125 17.2855 12.125 16.25C12.125 15.2145 11.2855 14.375 10.25 14.375C9.21447 14.375 8.375 15.2145 8.375 16.25C8.375 17.2855 9.21447 18.125 10.25 18.125Z" fill="#FDFDFD"/>
</svg>
