<svg width="16" height="18" viewBox="0 0 16 18" fill="none" xmlns="http://www.w3.org/2000/svg">
<path d="M2.85897 15.1102C2.84743 15.1102 2.83555 15.1092 2.82401 15.1075C2.11356 14.9761 1.48355 14.5702 1.07045 13.9775C0.657348 13.3848 0.494416 12.6533 0.616954 11.9415C0.637321 11.8275 0.745264 11.7504 0.859656 11.7684C0.974048 11.7867 1.05314 11.893 1.03718 12.0077C0.931618 12.6089 1.06739 13.2273 1.41464 13.7294C1.76223 14.2311 2.29346 14.5759 2.8936 14.6883C3.00256 14.7066 3.07927 14.8054 3.07011 14.9154C3.06094 15.0254 2.96963 15.1102 2.85897 15.1109V15.1099V15.1102Z" fill="#354049"/>
<path d="M3.03953 14.166C3.03241 14.166 3.02494 14.166 3.01815 14.165C2.53071 14.1236 2.08502 13.8731 1.79649 13.4776C1.50831 13.0723 1.41021 12.5621 1.52732 12.0788C1.53784 12.0221 1.5711 11.9722 1.61931 11.9406C1.66751 11.9087 1.72657 11.8982 1.78258 11.9104C1.83892 11.923 1.88747 11.9579 1.91768 12.0071C1.94789 12.0564 1.95637 12.1154 1.94212 12.1714C1.8525 12.536 1.9248 12.9216 2.14103 13.2288C2.35895 13.5248 2.69432 13.7118 3.06024 13.7414C3.17803 13.7471 3.26832 13.8473 3.26255 13.9647C3.25678 14.0822 3.15664 14.1728 3.03919 14.1667V14.166H3.03953Z" fill="#354049"/>
<path d="M9.03088 17.2174C8.26917 17.2095 7.5207 17.0144 6.85268 16.6485C5.81467 16.107 5.25051 15.5035 4.15513 13.1916C3.64936 12.1261 3.55873 11.9221 3.3717 11.5005C3.2624 11.2584 3.12391 10.9438 2.85303 10.3491H2.85269C2.56281 9.70685 2.23287 9.08364 1.86457 8.48282C1.61712 8.06734 1.36118 7.63829 1.03905 6.98045C0.847265 6.58873 0.338101 5.548 1.21013 5.05887C1.49017 4.90136 2.21556 4.65255 2.88494 5.73605C3.22336 6.28222 3.41311 6.63286 3.58046 6.94209C3.78446 7.33313 4.01155 7.71195 4.26036 8.07617C4.21182 7.94922 4.16226 7.82125 4.11474 7.69701C3.88154 7.09111 3.61746 6.40442 3.36898 5.69193L3.25968 5.37285C3.12934 4.99335 3.02547 4.69363 2.79057 4.0901C2.65072 3.73063 2.45011 3.05242 2.67924 2.54462C2.78412 2.31006 2.98066 2.12846 3.22268 2.04292C3.68263 1.87422 4.34488 1.90646 4.88697 3.02594C5.53531 4.36335 5.72845 4.82533 6.07739 5.71467C6.19077 6.00252 6.35268 6.36436 6.51901 6.70923C6.43109 6.32872 6.30923 5.85112 6.14291 5.25948C5.77665 4.17122 5.52037 3.04903 5.37814 1.90986C5.23252 0.840275 5.54209 0.133555 6.20536 0.0211999C7.31161 -0.17364 7.68805 1.05141 7.86863 1.63695L7.89138 1.70993C8.20061 2.70212 8.34317 3.26899 8.4949 3.86912C8.56992 4.16749 8.64867 4.48012 8.75288 4.86572C8.79124 5.00965 8.83876 5.19736 8.89137 5.40578C8.91072 5.48351 8.93346 5.57278 8.9579 5.66986C8.95078 5.58364 8.94297 5.49369 8.93414 5.39797H8.93448C8.8116 4.22486 8.78954 3.04326 8.86863 1.86641C8.95417 0.500493 9.62898 0.292414 9.91581 0.266277C10.6836 0.201444 11.0832 0.969942 11.1975 1.71807L11.2118 1.81074C11.3866 2.8311 11.4966 3.86165 11.5417 4.89593C11.5753 5.89729 11.6728 6.89525 11.833 7.88439C11.8934 8.32736 11.9759 8.76626 12.0994 9.19633C12.352 10.0772 12.3645 9.38201 12.4979 8.80971C12.5665 8.51575 12.6259 8.26354 12.6884 8.0833C13.1982 6.62675 13.817 6.06735 14.0594 5.89423C14.332 5.69838 15.1609 5.29715 15.704 5.77848C15.8353 5.88744 15.929 6.03408 15.9728 6.19871C16.0166 6.36334 16.0078 6.53714 15.948 6.69668C15.8649 6.91052 15.7844 7.09925 15.707 7.28255C15.4993 7.74453 15.3289 8.22281 15.1972 8.71195C14.966 9.57447 14.7844 10.4499 14.6541 11.3335C14.5635 12.0205 14.409 12.6973 14.1928 13.3559C13.7053 14.8185 13.1079 15.8165 11.4939 16.5867C10.7308 16.9794 9.88899 17.195 9.03122 17.2174V17.2177L9.03088 17.2174ZM9.02749 16.8124C9.82144 16.7907 10.6018 16.5904 11.3082 16.2269L11.3191 16.2214C12.7522 15.5378 13.3225 14.6926 13.8082 13.2289C14.0187 12.5945 14.1599 11.9387 14.2529 11.2775C14.3795 10.3766 14.5702 9.48588 14.8058 8.6074C14.9426 8.09722 15.1208 7.59857 15.3337 7.12505C15.4141 6.93462 15.4956 6.74522 15.5696 6.55207C15.6001 6.47264 15.6032 6.38507 15.5811 6.30326C15.559 6.21976 15.5115 6.14542 15.445 6.09009L15.4351 6.08161C15.1388 5.81888 14.5747 6.02322 14.295 6.22349C13.7274 6.62981 13.2902 7.58839 13.0706 8.21704C12.9949 8.43292 12.9443 8.67868 12.892 8.90169C12.8204 9.20923 12.7474 9.52389 12.6504 9.8243C12.1921 11.2411 12.3411 11.2411 11.8802 9.82498C11.6809 9.21262 11.5343 8.58398 11.4331 7.9482C11.2736 6.94311 11.1765 5.92852 11.1371 4.91189C11.0977 3.89526 10.9844 2.88202 10.8116 1.87218L10.7973 1.77951C10.7315 1.34774 10.5034 0.622353 9.95043 0.669874C9.42599 0.71502 9.29836 1.49608 9.27291 1.89255C9.19823 3.04665 9.21826 4.20619 9.33706 5.35656C9.3469 5.45024 9.35403 5.54393 9.3615 5.63762C9.41581 6.3036 8.70162 6.30394 8.56585 5.77034C8.54344 5.68208 8.52104 5.59349 8.49898 5.50523C8.45417 5.32736 8.41004 5.14882 8.36218 4.97163C8.27189 4.63796 8.18669 4.30361 8.10217 3.96858C7.92023 3.24624 7.7281 2.54292 7.50509 1.83179L7.48235 1.75881C7.30821 1.20348 7.03225 0.28936 6.27495 0.420724C5.68738 0.522556 5.72437 1.42921 5.78004 1.85826C5.92498 2.96994 6.16904 4.06803 6.52682 5.13083L6.52987 5.14067L6.53259 5.15052C6.66938 5.63694 6.79973 6.12675 6.91344 6.61894C7.03632 7.15221 6.42363 7.44379 6.15445 6.88575C5.99321 6.55139 5.83639 6.20856 5.70061 5.86301C5.34046 4.94515 4.9535 4.09213 4.52275 3.20279C4.29838 2.73946 3.94264 2.21264 3.36084 2.42377C3.22234 2.47401 3.10897 2.57652 3.04855 2.71094C2.89105 3.06091 3.03701 3.60673 3.16803 3.94346C3.33572 4.37489 3.49322 4.80428 3.64291 5.24216L3.75221 5.56124C3.98168 6.23164 4.23863 6.89084 4.49288 7.55207C4.54142 7.67834 4.5903 7.80496 4.63884 7.93157C4.83334 8.43937 4.27394 8.81344 3.92635 8.30462C3.66905 7.92783 3.43653 7.53476 3.22302 7.13184C3.00917 6.72824 2.78107 6.33788 2.54108 5.94922C2.29295 5.548 1.90123 5.13592 1.4087 5.41223C0.878494 5.70992 1.20504 6.39831 1.40293 6.80292C1.6514 7.31073 1.91855 7.7907 2.21081 8.27339C2.58419 8.88947 2.92397 9.52593 3.22167 10.1821C3.3958 10.5663 3.56925 10.9506 3.74101 11.3358C3.99356 11.901 4.25527 12.4591 4.52071 13.0185C4.98439 13.9964 5.60693 15.3311 6.51799 15.9767C6.68364 16.0941 6.85981 16.196 7.04684 16.2934C7.6541 16.626 8.33503 16.8043 9.02749 16.8124Z" fill="#354049"/>
<path d="M15.4881 4.71688C15.4956 4.70805 15.5024 4.69821 15.5085 4.68836C15.8659 4.06074 15.962 3.31736 15.7753 2.61946C15.5886 1.92157 15.1344 1.32551 14.5112 0.960267C14.4107 0.902222 14.2824 0.935148 14.2227 1.0346C14.1626 1.13372 14.1931 1.26271 14.2912 1.32449C14.8187 1.63134 15.2043 2.13372 15.3639 2.72299C15.5234 3.31226 15.4443 3.94057 15.1436 4.4718C15.0876 4.56684 15.1134 4.68904 15.2033 4.7532C15.2933 4.81735 15.4172 4.80208 15.4888 4.7179L15.4881 4.71722V4.71688Z" fill="#354049"/>
<path d="M14.6499 4.24673C14.6547 4.2413 14.6594 4.23587 14.6628 4.22976C14.9456 3.83057 15.0413 3.3282 14.9252 2.85298C14.801 2.37131 14.4744 1.96737 14.0294 1.74538C13.9792 1.71687 13.9198 1.71042 13.8644 1.72637C13.8091 1.74266 13.763 1.78102 13.7361 1.83194C13.7093 1.88319 13.7046 1.94293 13.7229 1.99759C13.7409 2.05224 13.7806 2.09738 13.8325 2.12216C14.1693 2.28849 14.4171 2.59263 14.5124 2.95583C14.5983 3.31326 14.525 3.69005 14.3115 3.98943C14.2402 4.08312 14.2582 4.21652 14.3519 4.2878C14.4452 4.35909 14.579 4.3411 14.6506 4.24741L14.6499 4.24673Z" fill="#354049"/>
</svg>
