<svg width="17" height="20" viewBox="0 0 17 20" fill="none" xmlns="http://www.w3.org/2000/svg">
<path d="M12.3465 4.52179H3.89658C3.80646 4.52179 3.7334 4.59375 3.7334 4.68251C3.7334 4.77127 3.80646 4.84323 3.89658 4.84323H12.3465C12.4367 4.84323 12.5097 4.77127 12.5097 4.68251C12.5097 4.59375 12.4367 4.52179 12.3465 4.52179Z" fill="#354049"/>
<path d="M12.3465 3.03333H3.89658C3.80646 3.03333 3.7334 3.10528 3.7334 3.19404C3.7334 3.28281 3.80646 3.35476 3.89658 3.35476H12.3465C12.4367 3.35476 12.5097 3.28281 12.5097 3.19404C12.5097 3.10528 12.4367 3.03333 12.3465 3.03333Z" fill="#354049"/>
<path d="M12.3465 6.43927H3.89658C3.80646 6.43927 3.7334 6.51123 3.7334 6.59999C3.7334 6.68875 3.80646 6.76071 3.89658 6.76071H12.3465C12.4367 6.76071 12.5097 6.68875 12.5097 6.59999C12.5097 6.51123 12.4367 6.43927 12.3465 6.43927Z" fill="#354049"/>
<path d="M12.3465 8.32855H3.89658C3.80646 8.32855 3.7334 8.40051 3.7334 8.48927C3.7334 8.57803 3.80646 8.64999 3.89658 8.64999H12.3465C12.4367 8.64999 12.5097 8.57803 12.5097 8.48927C12.5097 8.40051 12.4367 8.32855 12.3465 8.32855Z" fill="#354049"/>
<path d="M12.3465 10.1829H3.89658C3.80646 10.1829 3.7334 10.2549 3.7334 10.3436C3.7334 10.4324 3.80646 10.5044 3.89658 10.5044H12.3465C12.4367 10.5044 12.5097 10.4324 12.5097 10.3436C12.5097 10.2549 12.4367 10.1829 12.3465 10.1829Z" fill="#354049"/>
<path fill-rule="evenodd" clip-rule="evenodd" d="M13.5149 18.043L12.3035 19.719C12.1783 19.8917 11.9778 19.9962 11.7623 19.9999C11.5431 20.0036 11.3462 19.9095 11.2123 19.7387L9.88694 18.0418L8.67491 19.7184C8.54972 19.8911 8.34917 19.9956 8.13429 19.9993H8.12184C7.91132 19.9993 7.71201 19.9028 7.58371 19.7381L6.26144 18.0418L5.04629 19.719C4.9211 19.8917 4.72055 19.9956 4.50568 19.9993C4.2908 20.003 4.08651 19.9059 3.95509 19.7381L2.63282 18.0424L1.42141 19.7184C1.29373 19.8954 1.08758 19.9993 0.86834 19.9993C0.798582 19.9993 0.728825 19.9888 0.662182 19.9679C0.380662 19.8794 0.189453 19.6207 0.189453 19.3294V0.991974C0.189453 0.44436 0.63976 0 1.1947 0H15.0508C15.6058 0 16.0555 0.44436 16.0555 0.991974V19.3294C16.0555 19.617 15.8699 19.8727 15.5939 19.9643C15.3205 20.0552 15.0141 19.9643 14.8378 19.7381L13.5156 18.0424L13.5149 18.043ZM15.0496 0.39765H1.19408C0.861488 0.39765 0.59118 0.664389 0.59118 0.992589V19.33C0.59118 19.4486 0.669033 19.5543 0.783634 19.5906C0.811662 19.5992 0.839689 19.6035 0.867717 19.6035C0.955536 19.6035 1.04024 19.5623 1.0938 19.4885L2.62037 17.3761C2.87635 17.7043 4.20236 19.6084 4.4982 19.6035C4.58602 19.6016 4.66824 19.5592 4.71868 19.4892L6.24898 17.3761L7.90198 19.4965C7.95803 19.5684 8.03589 19.601 8.12682 19.6029C8.21402 19.601 8.29623 19.5586 8.3473 19.4879L9.87386 17.3755L11.5306 19.4959C11.5842 19.5641 11.6589 19.6041 11.7548 19.6022C11.8426 19.6004 11.9242 19.558 11.9753 19.4873L13.5019 17.3749L15.1549 19.4953C15.2271 19.5881 15.3517 19.6244 15.4638 19.5875C15.5759 19.55 15.6519 19.4461 15.6519 19.3287V0.99136C15.6525 0.66316 15.3822 0.396421 15.049 0.396421L15.0496 0.39765Z" fill="#354049"/>
<path fill-rule="evenodd" clip-rule="evenodd" d="M10.9569 13.11V15.9243C10.9569 16.0171 10.8803 16.0927 10.7862 16.0927C10.6922 16.0927 10.6156 16.0177 10.6156 15.9243V13.11H9.24536C9.15132 13.11 9.07471 13.0344 9.07471 12.9416C9.07471 12.8488 9.15132 12.7732 9.24536 12.7732H12.3278C12.4218 12.7732 12.4984 12.8482 12.4984 12.9416C12.4984 13.0344 12.4224 13.11 12.3278 13.11H10.9575H10.9569ZM9.24536 11.9847C9.15132 11.9847 9.07471 11.9091 9.07471 11.8163C9.07471 11.7235 9.15132 11.6479 9.24536 11.6479H12.3278C12.4218 11.6479 12.4984 11.7235 12.4984 11.8163C12.4984 11.9091 12.4218 11.9847 12.3278 11.9847H9.24536Z" fill="#354049"/>
</svg>
