<svg width="28" height="26" viewBox="0 0 28 26" fill="none" xmlns="http://www.w3.org/2000/svg">
<path d="M26.9876 24.5C25.1217 21.2857 22.135 18.8732 18.6001 17.725C20.2945 16.7175 21.6112 15.1815 22.3479 13.3531C23.0847 11.5246 23.2007 9.50487 22.6783 7.60408C22.1558 5.70329 21.0237 4.0266 19.456 2.8316C17.8882 1.63659 15.9714 0.98938 14.0001 0.98938C12.0288 0.98938 10.1121 1.63659 8.54428 2.8316C6.9765 4.0266 5.84442 5.70329 5.32197 7.60408C4.79951 9.50487 4.91557 11.5246 5.65233 13.3531C6.38908 15.1815 7.70577 16.7175 9.40012 17.725C5.86524 18.8732 2.87854 21.2857 1.01262 24.5C0.921009 24.6507 0.872559 24.8237 0.872559 25C0.872559 25.1764 0.921009 25.3493 1.01262 25.5C1.09809 25.6533 1.22333 25.7806 1.37513 25.8686C1.52693 25.9566 1.69967 26.002 1.87512 26H26.1251C26.3006 26.002 26.4733 25.9566 26.6251 25.8686C26.7769 25.7806 26.9021 25.6533 26.9876 25.5C27.0792 25.3493 27.1277 25.1764 27.1277 25C27.1277 24.8237 27.0792 24.6507 26.9876 24.5Z" fill="#1078F9"/>
</svg>
