<svg width="21" height="20" viewBox="0 0 21 20" fill="none" xmlns="http://www.w3.org/2000/svg">
<g clip-path="url(#clip0_251_2499)">
<path d="M20.572 6.28366H1.17803C1.01076 6.28366 0.875 6.1479 0.875 5.98063V3.90124C0.875 3.73396 1.01076 3.59821 1.17803 3.59821H20.572C20.7392 3.59821 20.875 3.73396 20.875 3.90124V5.98124C20.875 6.14851 20.7392 6.28366 20.572 6.28366ZM1.48106 5.6776H20.2689V4.20427H1.48106V5.6776Z" fill="#354049"/>
<path d="M2.77559 16.4019H1.8859C1.79681 16.4019 1.71135 16.3625 1.65378 16.2934C1.5962 16.2243 1.57196 16.134 1.58772 16.0461L3.36711 5.92792C3.39256 5.78367 3.51802 5.67761 3.66529 5.67761H5.74165C5.83681 5.67761 5.92711 5.72246 5.98408 5.79882C6.04105 5.87519 6.05923 5.97398 6.03196 6.06549L3.0659 16.1843C3.02832 16.3134 2.90953 16.4019 2.77559 16.4019ZM2.24711 15.7958H2.54893L5.33741 6.28367H3.91984L2.24711 15.7958Z" fill="#354049"/>
<path d="M19.3422 16.4019H18.4519C18.3174 16.4019 18.1992 16.3134 18.1616 16.1843L15.1956 6.0661C15.1683 5.97459 15.1865 5.8758 15.2434 5.79943C15.301 5.72307 15.3907 5.67822 15.4859 5.67822H17.5622C17.7095 5.67822 17.835 5.78428 17.8604 5.92853L19.6404 16.0467C19.6556 16.1352 19.6313 16.2255 19.5744 16.294C19.5174 16.3625 19.4313 16.4019 19.3422 16.4019ZM18.6786 15.7958H18.981L17.3077 6.28368H15.8907L18.6786 15.7958Z" fill="#354049"/>
<path d="M16.0686 8.27031H5.15948C4.9922 8.27031 4.85645 8.13455 4.85645 7.96728C4.85645 7.8 4.9922 7.66425 5.15948 7.66425H16.0686C16.2358 7.66425 16.3716 7.8 16.3716 7.96728C16.3716 8.13455 16.2364 8.27031 16.0686 8.27031Z" fill="#354049"/>
</g>
<defs>
<clipPath id="clip0_251_2499">
<rect width="20" height="20" fill="white" transform="translate(0.875)"/>
</clipPath>
</defs>
</svg>
