<svg width="21" height="20" viewBox="0 0 21 20" fill="none" xmlns="http://www.w3.org/2000/svg">
<path d="M18.9241 19.9999H16.2902H16.2819H5.2177H5.21585H5.21401H5.21031H2.57361C2.48769 19.9999 2.41748 19.9316 2.41748 19.846V17.021C2.41748 14.7069 4.5747 12.9711 8.19531 12.3655V10.7362C8.12509 10.6761 8.05673 10.6133 7.99021 10.5477C7.25851 9.8255 6.84739 8.84741 6.84647 7.82651V6.34661H6.80305C6.74207 6.3457 6.6811 6.35207 6.62197 6.36482C6.5804 6.37484 6.53698 6.36847 6.50002 6.34661C6.46491 6.32293 6.43997 6.2865 6.43166 6.24461C6.3134 5.68179 6.06026 4.30572 6.24411 3.71831C6.42796 3.13091 7.13102 2.20108 8.3228 0.948858C8.83924 0.413363 9.53583 0.0809556 10.2814 0.0135633C10.3802 0.00445629 10.4791 0.000813464 10.5779 0.000813464C10.6943 -0.00100795 11.1794 0.00263488 11.2967 0.0135633C12.0432 0.0809556 12.7389 0.414274 13.2553 0.948858C14.448 2.20108 15.1501 3.13091 15.334 3.71831C15.5178 4.30572 15.2656 5.68179 15.1464 6.24461C15.1372 6.28559 15.1132 6.32202 15.0781 6.34661C15.0411 6.36847 14.9977 6.37484 14.9561 6.36482C14.897 6.35207 14.836 6.3457 14.775 6.34661H14.6623V7.71904C14.6734 8.75178 14.2706 9.74627 13.5417 10.4876C13.4659 10.565 13.3865 10.6388 13.3043 10.7098V12.3655C16.9258 12.9811 19.0821 14.7069 19.0821 17.021V19.846C19.0821 19.887 19.0655 19.927 19.035 19.9562C19.0054 19.9853 18.9648 20.0008 18.9223 19.9999H18.9241ZM5.05787 19.6921V13.6924C3.56214 14.5002 2.72975 15.6531 2.72975 17.021V19.6921H5.0588H5.05787ZM16.4426 13.6933V19.6921H18.768V17.021C18.768 15.6531 17.9365 14.5002 16.4426 13.6933ZM6.90375 12.9665L10.7489 17.6922L14.5995 12.9674C14.1394 12.839 13.6461 12.7316 13.1213 12.6487C13.0456 12.6359 12.9901 12.5713 12.9901 12.4948V10.9839C12.3333 11.4375 11.5508 11.6815 10.7489 11.6824C9.94695 11.6824 9.16536 11.4375 8.51034 10.9812V12.4948C8.51034 12.5704 8.45491 12.635 8.37915 12.6487C7.85533 12.7316 7.36198 12.8381 6.90282 12.9665H6.90375ZM8.42719 10.5331C8.43551 10.5377 8.44382 10.5431 8.45214 10.5495C8.59903 10.6715 8.75517 10.7808 8.91869 10.8774C9.46839 11.1979 10.1003 11.371 10.7498 11.371H10.7775C11.7402 11.3473 12.6539 10.9502 13.3218 10.2663C13.9898 9.58235 14.3575 8.66709 14.3454 7.71813V5.78835C14.3436 5.24192 14.1228 4.71736 13.7302 4.33122C13.3662 3.9724 12.8811 3.75929 12.3702 3.73015H12.3333H10.9475V3.72742H10.6343V3.73015H9.24851C8.69419 3.73106 8.16205 3.94872 7.76941 4.33486C7.37677 4.721 7.15596 5.24466 7.15411 5.79199V6.19179V6.19725V7.82559C7.15411 8.76544 7.5329 9.66704 8.20732 10.3319C8.27845 10.402 8.35144 10.4685 8.42812 10.5313L8.42719 10.5331Z" fill="#FDFDFD"/>
<path d="M12.5201 14.9146C12.3723 14.9146 12.2272 14.8709 12.1053 14.788L11.0216 14.0713C10.9717 14.0376 10.9468 13.9793 10.956 13.921C10.9652 13.8627 11.0077 13.8145 11.065 13.7981C11.1158 13.7835 11.1629 13.7571 11.2027 13.7216C11.2664 13.666 11.3024 13.5868 11.3024 13.503C11.3071 13.3582 11.2082 13.2298 11.065 13.1952C11.0068 13.1797 10.9634 13.1314 10.956 13.0723C10.9468 13.014 10.9717 12.9557 11.0216 12.922L12.1081 12.2053C12.2217 12.1333 12.3529 12.0923 12.4878 12.0878C12.6226 12.0832 12.7566 12.1142 12.8758 12.1779C12.9857 12.2335 13.0781 12.3173 13.1419 12.4211C13.2065 12.5249 13.2407 12.6442 13.2407 12.7653V14.2425C13.2407 14.3636 13.2065 14.482 13.1419 14.5858C13.0772 14.6888 12.9848 14.7725 12.8758 14.8272C12.7658 14.8855 12.6439 14.9155 12.5201 14.9164V14.9146ZM11.4059 13.9547L12.2771 14.533C12.4139 14.6223 12.5885 14.6305 12.7326 14.5549C12.8527 14.4975 12.9294 14.3782 12.9321 14.2471V12.7699C12.9303 12.6388 12.8527 12.5195 12.7326 12.4621C12.5903 12.3847 12.4157 12.392 12.2799 12.4803L11.4059 13.0586C11.539 13.1688 11.6193 13.33 11.6276 13.5021C11.6267 13.6715 11.5537 13.8327 11.4281 13.9484L11.4059 13.9547Z" fill="#FDFDFD"/>
<path d="M8.86172 14.9146C8.73793 14.9137 8.61505 14.8836 8.50604 14.8253C8.3961 14.7707 8.30464 14.6869 8.23997 14.584C8.1753 14.4811 8.14111 14.3627 8.14111 14.2416V12.7644C8.14111 12.6424 8.1753 12.524 8.23997 12.4202C8.30464 12.3164 8.39702 12.2326 8.50604 12.177C8.62614 12.1142 8.76102 12.0841 8.89683 12.0905C9.03264 12.0969 9.16383 12.1397 9.27746 12.2144L10.3547 12.9311C10.4055 12.9639 10.4332 13.024 10.423 13.0832C10.4138 13.1433 10.3695 13.1915 10.3103 13.2079C10.2623 13.2207 10.218 13.2462 10.1828 13.2817C10.1191 13.3382 10.0821 13.4183 10.0803 13.503C10.0766 13.6487 10.1764 13.7771 10.3205 13.8108C10.3778 13.8281 10.4203 13.8755 10.4295 13.9338C10.4378 13.993 10.411 14.0512 10.3612 14.0849L9.27746 14.8017C9.15366 14.8791 9.00862 14.9182 8.86265 14.9155L8.86172 14.9146ZM8.86172 12.3974C8.78782 12.3974 8.71575 12.4147 8.64924 12.4466C8.52913 12.5049 8.45153 12.6224 8.44599 12.7544V14.2316C8.45061 14.3627 8.52729 14.4811 8.64554 14.5394C8.78966 14.615 8.96427 14.6059 9.101 14.5175L9.97498 13.9392C9.84471 13.8254 9.76988 13.6615 9.76988 13.4903C9.76988 13.3181 9.84471 13.1551 9.97498 13.0413L9.101 12.4593C9.03079 12.4165 8.94949 12.3947 8.86727 12.3974H8.8608H8.86172Z" fill="#FDFDFD"/>
<path fill-rule="evenodd" clip-rule="evenodd" d="M10.473 12.7827H10.9303C11.3276 12.7827 11.6518 13.0968 11.6518 13.4803C11.6518 13.8646 11.3276 14.1779 10.9303 14.1779H10.473C10.0757 14.1779 9.75146 13.8637 9.75146 13.4803C9.75146 13.0959 10.0757 12.7827 10.473 12.7827ZM10.473 13.2098C10.3187 13.2098 10.1931 13.3318 10.1931 13.4803C10.1931 13.6287 10.3196 13.7507 10.473 13.7507H10.9303C11.0846 13.7507 11.2102 13.6287 11.2102 13.4803C11.2102 13.3318 11.0837 13.2098 10.9303 13.2098H10.473Z" fill="#FDFDFD"/>
<path d="M7.00911 8.4841H6.79385C6.47604 8.48501 6.17116 8.36207 5.94574 8.14077C5.72124 7.91947 5.59375 7.61984 5.59375 7.30656C5.59375 6.99328 5.7194 6.69275 5.94482 6.47144C6.17116 6.25105 6.47604 6.1272 6.79385 6.1272H6.99063C7.0322 6.1272 7.07193 6.14359 7.10057 6.17273C7.13013 6.20188 7.14676 6.24104 7.14676 6.28202V7.91855C7.14676 8.05152 7.15415 8.18357 7.16893 8.31562C7.1717 8.35934 7.15692 8.40214 7.12828 8.43583C7.0978 8.46771 7.05437 8.48501 7.01003 8.48501L7.00911 8.4841ZM6.79385 6.43502C6.56011 6.43593 6.33561 6.52791 6.16932 6.69001C6.00394 6.85303 5.91063 7.07433 5.91063 7.30565C5.91063 7.53606 6.00394 7.75827 6.16932 7.92129C6.33469 8.0843 6.55919 8.17628 6.79385 8.17628H6.83727V7.91764V6.43411H6.79385V6.43502Z" fill="#FDFDFD"/>
<path d="M14.7235 8.4841H14.5083C14.4648 8.4841 14.4223 8.46588 14.3928 8.43492C14.3632 8.40213 14.3484 8.35842 14.3521 8.31471C14.3669 8.18265 14.3743 8.0506 14.3743 7.91764V6.28019C14.3743 6.1955 14.4445 6.12628 14.5304 6.12628H14.7244C15.1513 6.12628 15.5467 6.35123 15.7601 6.71551C15.9735 7.07979 15.9735 7.52968 15.7601 7.89396C15.5467 8.25824 15.1522 8.48319 14.7244 8.48319L14.7235 8.4841ZM14.6801 8.17628H14.7235C15.0395 8.17628 15.3305 8.01053 15.4885 7.74096C15.6464 7.47139 15.6464 7.1399 15.4885 6.87033C15.3305 6.60076 15.0385 6.43501 14.7235 6.43501H14.6856V7.91855C14.6856 8.00507 14.6829 8.09067 14.6801 8.17719V8.17628Z" fill="#FDFDFD"/>
<path d="M12.4046 3.42423C13.0098 3.447 13.5853 3.6938 14.0149 4.11728C14.4658 4.5617 14.7198 5.16368 14.7217 5.79206V6.03795H14.8556C14.9619 5.49973 15.1707 4.29031 15.021 3.80673C14.8492 3.27123 14.1563 2.35688 13.0135 1.16295C12.5478 0.680274 11.9205 0.379741 11.248 0.318724C11.1639 0.311438 10.8091 0.306885 10.6308 0.306885V0.307795C10.6105 0.307795 10.5902 0.306885 10.5698 0.306885H10.5652H10.5634H10.5606H10.5578H10.556H10.5523H10.5514H10.5477C10.4747 0.307795 10.4017 0.311438 10.3287 0.317813C9.65614 0.37883 9.02791 0.679363 8.56321 1.16204C7.4204 2.35597 6.7275 3.27032 6.55566 3.80581C6.406 4.28849 6.61479 5.49791 6.72103 6.03704H6.84668V5.78751C6.84853 5.15912 7.10259 4.55715 7.55343 4.11272C8.00428 3.6683 8.61587 3.41876 9.25334 3.41785H12.2559C12.3058 3.41785 12.3547 3.41968 12.4046 3.42241V3.42423Z" fill="#191B28"/>
<path d="M5.36963 13.533V16.6126V19.6921H16.1298V13.5339C15.7621 13.3573 15.3584 13.1997 14.9224 13.0631L10.8731 18.0183C10.8426 18.0556 10.7964 18.0774 10.7483 18.0765C10.7012 18.0765 10.656 18.0556 10.6264 18.0183L6.57989 13.0622C6.1429 13.1988 5.73917 13.3564 5.37055 13.5339L5.36963 13.533Z" fill="#191B28"/>
</svg>
